<?xml version="1.0"?>
<svg xmlns="http://www.w3.org/2000/svg" xmlns:xlink="http://www.w3.org/1999/xlink" version="1.1" id="Capa_1" x="0px" y="0px" viewBox="0 0 496 496" style="enable-background:new 0 0 496 496;" xml:space="preserve" width="512px" height="512px" class=""><g><g>
	<path style="fill:#152635" d="M56,240c-13.232,0-24,10.768-24,24s10.768,24,24,24s24-10.768,24-24S69.232,240,56,240z M56,272   c-4.408,0-8-3.584-8-8s3.592-8,8-8s8,3.584,8,8S60.408,272,56,272z" data-original="#333333" class="active-path" data-old_color="#333333"/>
	<path style="fill:#152635" d="M472,0h-24H288H171.528c-10.344,0-19.496,6.592-22.768,16.416L146.232,24H120   c-13.232,0-24,10.768-24,24v10.36C72.896,65.264,56,86.68,56,112c0,16.712,7.392,31.696,19.04,41.96   c-17.896,13.616-30.184,33.744-33.808,56.08C17.504,216.544,0,238.24,0,264c0,30.872,25.12,56,56,56h8v-16h-8   c-22.056,0-40-17.944-40-40s17.944-40,40-40c14.232,0,27.504,7.664,34.648,19.992l13.84-8.016   c-0.808-1.392-1.744-2.672-2.656-3.976H112v-64c30.88,0,56-25.12,56-56s-25.12-56-56-56v-8c0-4.408,3.592-8,8-8h37.768   l6.176-18.528C165.032,18.2,168.08,16,171.528,16h5.28c3.72,18.232,19.88,32,39.192,32s35.472-13.768,39.192-32H288v88.208   C281.296,99.128,273.04,96,264,96c-22.056,0-40,17.944-40,40s17.944,40,40,40c19.312,0,35.472-13.768,39.192-32H432v88H328v16h120   V144v-16h24c13.232,0,24-10.768,24-24V24C496,10.768,485.232,0,472,0z M96,224.864c-10.008-10.16-23.68-16.272-38.2-16.744   c4.208-18.432,15.68-34.688,31.68-44.888c2.104,0.928,4.288,1.688,6.52,2.36V224.864z M152,112c0,22.056-17.944,40-40,40   c-8.208,0-15.832-2.496-22.192-6.752l-0.216-0.448c-0.08,0.04-0.144,0.088-0.224,0.128C78.896,137.704,72,125.656,72,112   c0-22.056,17.944-40,40-40S152,89.944,152,112z M216,32c-10.416,0-19.216-6.712-22.528-16h45.048C235.216,25.288,226.416,32,216,32   z M264,160c-13.232,0-24-10.768-24-24s10.768-24,24-24s24,10.768,24,24S277.232,160,264,160z M384,128h-80V16h24.208   C323.128,22.704,320,30.96,320,40c0,22.056,17.944,40,40,40c9.04,0,17.296-3.128,24-8.208V128z M360,64c-13.232,0-24-10.768-24-24   s10.768-24,24-24s24,10.768,24,24S373.232,64,360,64z M480,104c0,4.408-3.592,8-8,8h-24V96h-16v16v16h-32V40   c0-9.04-3.128-17.296-8.208-24H432v64h16V16h24c4.408,0,8,3.592,8,8V104z" data-original="#333333" class="active-path" data-old_color="#333333"/>
	<path style="fill:#152635" d="M88,112c0,13.232,10.768,24,24,24s24-10.768,24-24s-10.768-24-24-24S88,98.768,88,112z M120,112   c0,4.408-3.592,8-8,8s-8-3.592-8-8s3.592-8,8-8S120,107.592,120,112z" data-original="#333333" class="active-path" data-old_color="#333333"/>
</g><path style="fill:#FD9422" d="M248,496h-64v-36.04c-11.56-2.976-22.616-7.568-32.984-13.712l-25.52,25.512L80.24,426.504  l25.512-25.52C99.608,390.616,95.016,379.56,92.04,368H56v-64h36.04c2.976-11.56,7.568-22.616,13.712-32.984l-25.512-25.52  l45.256-45.256l25.52,25.512c10.368-6.144,21.424-10.736,32.984-13.712V176h64v36.04c11.56,2.976,22.616,7.568,32.984,13.712  l25.52-25.512l45.256,45.256l-25.512,25.52c6.144,10.368,10.736,21.424,13.712,32.984H376v64h-36.04  c-2.976,11.56-7.568,22.616-13.712,32.984l25.512,25.52l-45.256,45.256l-25.52-25.512c-10.368,6.144-21.424,10.736-32.984,13.712  L248,496L248,496z" data-original="#FFA64D" class="" data-old_color="#fd9422"/><g>
	<path style="fill:#152635" d="M216,416c-44.112,0-80-35.888-80-80s35.888-80,80-80s80,35.888,80,80   c0,21.256-8.248,41.272-23.232,56.36l-11.352-11.264C273.4,369.016,280,353.008,280,336c0-35.288-28.712-64-64-64s-64,28.712-64,64   s28.712,64,64,64c12.144,0,23.96-3.416,34.168-9.872l8.552,13.512C245.952,411.728,231.176,416,216,416z" data-original="#333333" class="active-path" data-old_color="#333333"/>
	<path style="fill:#152635" d="M216,384c-26.472,0-48-21.528-48-48s21.528-48,48-48s48,21.528,48,48S242.472,384,216,384z M216,304   c-17.648,0-32,14.352-32,32s14.352,32,32,32s32-14.352,32-32S233.648,304,216,304z" data-original="#333333" class="active-path" data-old_color="#333333"/>
</g></g> </svg>
